<?xml version="1.0" standalone="no"?>
<!DOCTYPE svg PUBLIC "-//W3C//DTD SVG 20010904//EN"
 "http://www.w3.org/TR/2001/REC-SVG-20010904/DTD/svg10.dtd">
<svg version="1.0" xmlns="http://www.w3.org/2000/svg"
 width="143.000000pt" height="143.000000pt" viewBox="0 0 143.000000 143.000000"
 preserveAspectRatio="xMidYMid meet">
<metadata>
Created by potrace 1.11, written by Peter Selinger 2001-2013
</metadata>
<g transform="translate(0.000000,143.000000) scale(0.100000,-0.100000)"
fill="#000000" stroke="none">
<path d="M40 1423 c0 -3 60 -100 133 -216 72 -116 141 -225 152 -242 68 -110
106 -170 157 -249 32 -50 56 -91 54 -93 -2 -2 -106 -5 -232 -6 l-229 -2 0
-305 0 -305 295 -1 c162 0 300 2 307 4 8 2 11 57 11 184 0 99 2 181 4 183 2 2
46 -65 98 -148 l95 -152 227 -1 228 -1 -65 93 c-36 52 -65 96 -65 98 0 2 14 6
32 10 66 13 106 86 93 170 -10 56 -37 97 -97 148 -29 24 -79 70 -113 103 -34
33 -93 89 -131 124 -38 35 -73 71 -78 79 -10 17 -14 59 -20 203 -5 117 -21
170 -57 190 -57 30 -113 16 -177 -44 -32 -31 -58 -97 -48 -123 3 -8 4 -14 1
-14 -3 0 -24 29 -154 215 -35 50 -65 92 -68 94 -5 7 -353 10 -353 4z m851
-632 c48 -54 89 -131 99 -183 4 -21 6 -38 4 -38 -4 0 -214 300 -214 305 0 13
76 -44 111 -84z"/>
<path d="M1019 1310 c-1 -29 -1 -297 0 -321 1 -15 21 -17 181 -16 158 0 180 2
181 16 1 21 1 243 0 301 l-1 46 -180 -1 -180 0 -1 -25z"/>
</g>
</svg>
